<svg width="34" height="44" viewBox="0 0 34 44" fill="none" xmlns="http://www.w3.org/2000/svg">
<path d="M33.5303 26.0997C33.3909 36.6024 25.8093 43.1468 16.6267 43.005C7.44405 42.8633 0.139604 36.0891 0.277042 25.5863C0.41448 15.0836 17.1836 0.991654 17.1836 0.991654C17.1836 0.991654 33.669 15.5964 33.5303 26.0997Z" fill="#E8E8FC"/>
<path d="M31.1414 25.9866C31.0188 35.181 24.525 40.9123 16.6624 40.791C8.79983 40.6696 2.54749 34.7414 2.66842 25.5471C2.78935 16.3527 17.1523 4.01127 17.1523 4.01127C17.1523 4.01127 31.2635 16.7917 31.1414 25.9866Z" fill="white"/>
<path d="M7.67272 27.0908C7.59566 31.9584 11.4903 35.9667 16.3716 36.0435C21.2529 36.1203 25.2725 32.2367 25.3495 27.3691C25.4266 22.5015 21.532 18.4932 16.6506 18.4164C11.7693 18.3396 7.74977 22.2232 7.67272 27.0908Z" fill="#0F3CC9"/>
</svg>
